<svg xmlns="http://www.w3.org/2000/svg" viewBox="0 0 512 512">
 <defs>
  <linearGradient id="bg" x1="0" y1="0" x2="0" y2="1">
   <stop offset="0" stop-color="#262b36"/><stop offset="1" stop-color="#171a20"/>
  </linearGradient>
  <linearGradient id="ptop" x1="0" y1="0" x2="1" y2="1">
   <stop offset="0" stop-color="#57a5ff"/><stop offset="1" stop-color="#2563eb"/>
  </linearGradient>
  <linearGradient id="stop" x1="0" y1="0" x2="0" y2="1">
   <stop offset="0" stop-color="#ffd75e"/><stop offset="1" stop-color="#f5a623"/>
  </linearGradient>
 </defs>
 <rect width="512" height="512" rx="104" fill="url(#bg)"/>
 <rect x="6" y="6" width="500" height="500" rx="98" fill="none" stroke="#ffffff" stroke-opacity="0.07" stroke-width="4"/>
 <ellipse cx="256" cy="388" rx="164" ry="32" fill="#000000" opacity="0.22"/>
 <path d="M90.03 261.63L90.00 262.25L90.03 262.88L90.00 263.50L90.03 264.13L90.00 264.75L90.03 265.38L90.00 266.00L90.03 266.63L90.00 267.25L90.03 267.88L90.00 268.50L90.03 269.13L90.00 269.75L90.03 270.38L90.00 271.00L90.03 271.63L90.00 272.25L90.03 272.88L90.00 273.50L90.03 274.13L90.00 274.75L90.03 275.38L90.00 276.00L90.16 278.87L90.65 281.72L91.46 284.55L92.59 287.35L94.03 290.09L95.78 292.78L97.83 295.39L100.17 297.92L102.80 300.36L105.69 302.69L108.84 304.91L112.24 307.00L202.31 359.00L205.93 360.96L209.77 362.78L213.81 364.45L218.03 365.97L222.42 367.32L226.94 368.50L231.59 369.51L236.35 370.35L241.19 371.00L246.09 371.47L251.03 371.75L256.00 371.84L260.97 371.75L265.91 371.47L270.81 371.00L275.65 370.35L280.41 369.51L285.06 368.50L289.58 367.32L293.97 365.97L298.19 364.45L302.23 362.78L306.07 360.96L309.69 359.00L399.76 307.00L403.16 304.91L406.31 302.69L409.20 300.36L411.83 297.92L414.17 295.39L416.22 292.78L417.97 290.09L419.41 287.35L420.54 284.55L421.35 281.72L421.84 278.87L422.00 276.00L421.97 275.38L422.00 274.75L421.97 274.12L422.00 273.50L421.97 272.88L422.00 272.25L421.97 271.62L422.00 271.00L421.97 270.38L422.00 269.75L421.97 269.12L422.00 268.50L421.97 267.88L422.00 267.25L421.97 266.62L422.00 266.00L421.97 265.38L422.00 264.75L421.97 264.12L422.00 263.50L421.97 262.88L422.00 262.25L421.97 261.62L422.00 261.00L421.97 260.38L422.00 259.75L421.97 259.12L422.00 258.50L421.97 257.88L422.00 257.25L421.97 256.62L422.00 256.00L421.97 255.38L422.00 254.75L421.97 254.12L422.00 253.50L421.97 252.88L422.00 252.25L421.97 251.62L422.00 251.00L421.97 250.38L422.00 249.75L421.97 249.12L422.00 248.50L421.97 247.88L422.00 247.25L421.97 246.62L422.00 246.00L421.84 248.87L421.35 251.72L420.54 254.55L419.41 257.35L417.97 260.09L416.22 262.78L414.17 265.39L411.83 267.92L409.20 270.36L406.31 272.69L403.16 274.91L399.76 277.00L309.69 329.00L306.07 330.96L302.23 332.78L298.19 334.45L293.97 335.97L289.58 337.32L285.06 338.50L280.41 339.51L275.65 340.35L270.81 341.00L265.91 341.47L260.97 341.75L256.00 341.84L251.03 341.75L246.09 341.47L241.19 341.00L236.35 340.35L231.59 339.51L226.94 338.50L222.42 337.32L218.03 335.97L213.81 334.45L209.77 332.78L205.93 330.96L202.31 329.00L112.24 277.00L108.84 274.91L105.69 272.69L102.80 270.36L100.17 267.92L97.83 265.39L95.78 262.78L94.03 260.09L92.59 257.35L91.46 254.55L90.65 251.72L90.16 248.87L90.03 246.63L90.00 247.25L90.03 247.88L90.00 248.50L90.03 249.13L90.00 249.75L90.03 250.38L90.00 251.00L90.03 251.63L90.00 252.25L90.03 252.88L90.00 253.50L90.03 254.13L90.00 254.75L90.03 255.38L90.00 256.00L90.03 256.63L90.00 257.25L90.03 257.88L90.00 258.50L90.03 259.13L90.00 259.75L90.03 260.38L90.00 261.00Z" fill="#1a3576" fill-rule="evenodd"/>
 <path d="M399.76 215.00L309.69 163.00L306.07 161.04L302.23 159.22L298.19 157.55L293.97 156.03L289.58 154.68L285.06 153.50L280.41 152.49L275.65 151.65L270.81 151.00L265.91 150.53L260.97 150.25L256.00 150.16L251.03 150.25L246.09 150.53L241.19 151.00L236.35 151.65L231.59 152.49L226.94 153.50L222.42 154.68L218.03 156.03L213.81 157.55L209.77 159.22L205.93 161.04L202.31 163.00L112.24 215.00L108.84 217.09L105.69 219.31L102.80 221.64L100.17 224.08L97.83 226.61L95.78 229.22L94.03 231.91L92.59 234.65L91.46 237.45L90.65 240.28L90.16 243.13L90.00 246.00L90.16 248.87L90.65 251.72L91.46 254.55L92.59 257.35L94.03 260.09L95.78 262.78L97.83 265.39L100.17 267.92L102.80 270.36L105.69 272.69L108.84 274.91L112.24 277.00L202.31 329.00L205.93 330.96L209.77 332.78L213.81 334.45L218.03 335.97L222.42 337.32L226.94 338.50L231.59 339.51L236.35 340.35L241.19 341.00L246.09 341.47L251.03 341.75L256.00 341.84L260.97 341.75L265.91 341.47L270.81 341.00L275.65 340.35L280.41 339.51L285.06 338.50L289.58 337.32L293.97 335.97L298.19 334.45L302.23 332.78L306.07 330.96L309.69 329.00L399.76 277.00L403.16 274.91L406.31 272.69L409.20 270.36L411.83 267.92L414.17 265.39L416.22 262.78L417.97 260.09L419.41 257.35L420.54 254.55L421.35 251.72L421.84 248.87L422.00 246.00L421.84 243.13L421.35 240.28L420.54 237.45L419.41 234.65L417.97 231.91L416.22 229.22L414.17 226.61L411.83 224.08L409.20 221.64L406.31 219.31L403.16 217.09Z" fill="url(#ptop)" fill-rule="evenodd"/>
 <path d="M228.36 304.46L228.34 304.92L228.36 305.38L228.34 305.83L228.36 306.29L228.34 306.75L228.36 307.21L228.34 307.67L228.36 308.12L228.34 308.58L228.36 309.04L228.34 309.50L228.36 309.96L228.34 310.42L228.36 310.88L228.34 311.33L228.36 311.79L228.34 312.25L228.36 312.71L228.34 313.17L228.36 313.62L228.34 314.08L228.36 314.54L228.34 315.00L228.40 316.11L228.59 317.22L228.90 318.31L229.34 319.39L229.90 320.46L230.58 321.49L231.37 322.51L232.28 323.49L233.29 324.43L234.41 325.33L235.63 326.19L236.95 327.00L238.35 327.76L239.84 328.46L241.40 329.11L243.04 329.70L244.73 330.22L246.48 330.68L248.28 331.07L250.12 331.39L252.00 331.64L253.90 331.83L255.81 331.93L257.73 331.97L259.65 331.93L261.57 331.83L263.47 331.64L265.34 331.39L267.18 331.07L268.98 330.68L270.73 330.22L272.43 329.70L274.06 329.11L275.63 328.46L277.11 327.76L278.52 327.00L279.83 326.19L281.05 325.33L282.17 324.43L283.19 323.49L284.09 322.51L284.89 321.49L285.57 320.46L286.12 319.39L286.56 318.31L286.87 317.22L287.06 316.11L287.13 315.00L287.10 314.54L287.13 314.08L287.10 313.62L287.13 313.17L287.10 312.71L287.13 312.25L287.10 311.79L287.13 311.33L287.10 310.88L287.13 310.42L287.10 309.96L287.13 309.50L287.10 309.04L287.13 308.58L287.10 308.12L287.13 307.67L287.10 307.21L287.13 306.75L287.10 306.29L287.13 305.83L287.10 305.38L287.13 304.92L287.10 304.46L287.13 304.00L287.10 303.54L287.13 303.08L287.10 302.62L287.13 302.17L287.10 301.71L287.13 301.25L287.10 300.79L287.13 300.33L287.10 299.88L287.13 299.42L287.10 298.96L287.13 298.50L287.10 298.04L287.13 297.58L287.10 297.12L287.13 296.67L287.10 296.21L287.13 295.75L287.10 295.29L287.13 294.83L287.10 294.38L287.13 293.92L287.10 293.46L287.13 293.00L287.06 294.11L286.87 295.22L286.56 296.31L286.12 297.39L285.57 298.46L284.89 299.49L284.09 300.51L283.19 301.49L282.17 302.43L281.05 303.33L279.83 304.19L278.52 305.00L277.11 305.76L275.63 306.46L274.06 307.11L272.43 307.70L270.73 308.22L268.98 308.68L267.18 309.07L265.34 309.39L263.47 309.64L261.57 309.83L259.65 309.93L257.73 309.97L255.81 309.93L253.90 309.83L252.00 309.64L250.12 309.39L248.28 309.07L246.48 308.68L244.73 308.22L243.04 307.70L241.40 307.11L239.84 306.46L238.35 305.76L236.95 305.00L235.63 304.19L234.41 303.33L233.29 302.43L232.28 301.49L231.37 300.51L230.58 299.49L229.90 298.46L229.34 297.39L228.90 296.31L228.59 295.22L228.40 294.11L228.36 293.46L228.34 293.92L228.36 294.38L228.34 294.83L228.36 295.29L228.34 295.75L228.36 296.21L228.34 296.67L228.36 297.12L228.34 297.58L228.36 298.04L228.34 298.50L228.36 298.96L228.34 299.42L228.36 299.88L228.34 300.33L228.36 300.79L228.34 301.25L228.36 301.71L228.34 302.17L228.36 302.62L228.34 303.08L228.36 303.54L228.34 304.00Z" fill="#a02626" fill-rule="evenodd"/>
 <path d="M278.52 305.00L279.83 304.19L281.05 303.33L282.17 302.43L283.19 301.49L284.09 300.51L284.89 299.49L285.57 298.46L286.12 297.39L286.56 296.31L286.87 295.22L287.06 294.11L287.13 293.00L287.06 291.89L286.87 290.78L286.56 289.69L286.12 288.61L285.57 287.54L284.89 286.51L284.09 285.49L283.19 284.51L282.17 283.57L281.05 282.67L279.83 281.81L278.52 281.00L277.11 280.24L275.63 279.54L274.06 278.89L272.43 278.30L270.73 277.78L268.98 277.32L267.18 276.93L265.34 276.61L263.47 276.36L261.57 276.17L259.65 276.07L257.73 276.03L255.81 276.07L253.90 276.17L252.00 276.36L250.12 276.61L248.28 276.93L246.48 277.32L244.73 277.78L243.04 278.30L241.40 278.89L239.84 279.54L238.35 280.24L236.95 281.00L235.63 281.81L234.41 282.67L233.29 283.57L232.28 284.51L231.37 285.49L230.58 286.51L229.90 287.54L229.34 288.61L228.90 289.69L228.59 290.78L228.40 291.89L228.34 293.00L228.40 294.11L228.59 295.22L228.90 296.31L229.34 297.39L229.90 298.46L230.58 299.49L231.37 300.51L232.28 301.49L233.29 302.43L234.41 303.33L235.63 304.19L236.95 305.00L238.35 305.76L239.84 306.46L241.40 307.11L243.04 307.70L244.73 308.22L246.48 308.68L248.28 309.07L250.12 309.39L252.00 309.64L253.90 309.83L255.81 309.93L257.73 309.97L259.65 309.93L261.57 309.83L263.47 309.64L265.34 309.39L267.18 309.07L268.98 308.68L270.73 308.22L272.43 307.70L274.06 307.11L275.63 306.46L277.11 305.76Z" fill="#ef4444" fill-rule="evenodd"/>
 <path d="M222.77 166.33L222.96 167.35L222.77 167.25L222.96 168.27L222.77 168.17L222.96 169.18L222.77 169.08L222.96 170.10L222.77 170.00L222.96 171.02L222.77 170.92L222.96 171.93L222.77 171.83L222.96 172.85L222.77 172.75L222.96 173.77L222.77 173.67L222.96 174.68L222.77 174.58L222.96 175.60L222.77 175.50L222.96 176.52L222.77 176.42L225.01 188.30L179.63 203.30L228.91 187.01L222.77 154.42L222.96 155.43L222.77 155.33L222.96 156.35L222.77 156.25L222.96 157.27L222.77 157.17L222.96 158.18L222.77 158.08L222.96 159.10L222.77 159.00L222.96 160.02L222.77 159.92L222.96 160.93L222.77 160.83L222.96 161.85L222.77 161.75L222.96 162.77L222.77 162.67L222.96 163.68L222.77 163.58L222.96 164.60L222.77 164.50L222.96 165.52L222.77 165.42L222.96 166.43ZM181.66 203.55L179.63 204.22L181.66 204.46L179.63 205.13L181.66 205.38L179.63 206.05L181.66 206.30L179.63 206.97L181.66 207.21L179.63 207.88L181.66 208.13L179.63 208.80L181.66 209.05L179.63 209.72L181.66 209.96L179.63 210.63L181.66 210.88L179.63 211.55L181.66 211.80L179.63 212.47L181.66 212.71L179.63 213.38L181.66 213.63L179.63 214.30L181.66 214.55L179.63 215.22L181.66 215.46L179.63 216.13L181.66 216.38L179.63 217.05L181.66 217.30L179.63 217.97L181.66 218.21L179.63 218.88L181.66 219.13L179.63 219.80L181.66 220.05L179.63 220.72L181.66 220.96L179.63 221.63L181.66 221.88L179.63 222.55L181.66 222.80L179.63 223.47L181.66 223.71L179.63 224.38L181.66 224.63L179.63 225.30L235.22 232.00L246.82 264.09L275.03 235.64L331.49 239.19L329.89 238.17L331.49 238.27L329.89 237.25L331.49 237.35L329.89 236.34L331.49 236.44L329.89 235.42L331.49 235.52L329.89 234.50L331.49 234.60L329.89 233.59L331.49 233.69L329.89 232.67L331.49 232.77L329.89 231.75L331.49 231.85L329.89 230.84L331.49 230.94L329.89 229.92L331.49 230.02L329.89 229.00L331.49 229.10L329.89 228.09L331.49 228.19L329.89 227.17L331.49 227.27L329.89 226.25L331.49 226.35L329.89 225.34L331.49 225.44L329.89 224.42L331.49 224.52L329.89 223.50L331.49 223.60L329.89 222.59L331.49 222.69L329.89 221.67L331.49 221.77L329.89 220.75L331.49 220.85L329.89 219.84L331.49 219.94L329.89 218.92L331.49 219.02L329.89 218.00L331.49 218.10L329.89 217.09L275.03 213.64L246.82 242.09L235.22 210.00L179.63 203.30ZM304.79 200.19L316.62 185.00L315.73 185.23L316.62 184.08L315.73 184.32L316.62 183.17L315.73 183.40L316.62 182.25L315.73 182.48L316.62 181.33L315.73 181.57L316.62 180.42L315.73 180.65L316.62 179.50L315.73 179.73L316.62 178.58L315.73 178.82L316.62 177.67L315.73 177.90L316.62 176.75L315.73 176.98L316.62 175.83L315.73 176.07L316.62 174.92L315.73 175.15L316.62 174.00L315.73 174.23L316.62 173.08L315.73 173.32L316.62 172.17L315.73 172.40L316.62 171.25L315.73 171.48L316.62 170.33L315.73 170.57L316.62 169.42L315.73 169.65L316.62 168.50L315.73 168.73L316.62 167.58L315.73 167.82L316.62 166.67L315.73 166.90L316.62 165.75L315.73 165.98L316.62 164.83L315.73 165.07L316.62 163.92L315.73 164.15L316.62 163.00L293.33 192.90L331.49 217.19Z" fill="#b97d12" fill-rule="evenodd"/>
 <path d="M316.62 163.00L293.33 192.90L331.49 217.19L275.03 213.64L246.82 242.09L235.22 210.00L179.63 203.30L228.91 187.01L222.77 154.42L264.83 176.44Z" fill="url(#stop)" fill-rule="evenodd"/>
</svg>
