<svg xmlns="http://www.w3.org/2000/svg" viewBox="0 0 512 512">
 <defs>
  <linearGradient id="bg" x1="0" y1="0" x2="0" y2="1">
   <stop offset="0" stop-color="#262b36"/><stop offset="1" stop-color="#171a20"/>
  </linearGradient>
  <linearGradient id="ptop" x1="0" y1="0" x2="1" y2="1">
   <stop offset="0" stop-color="#57a5ff"/><stop offset="1" stop-color="#2563eb"/>
  </linearGradient>
  <linearGradient id="stop" x1="0" y1="0" x2="0" y2="1">
   <stop offset="0" stop-color="#ffd75e"/><stop offset="1" stop-color="#f5a623"/>
  </linearGradient>
 </defs>
 <rect width="512" height="512" rx="104" fill="url(#bg)"/>
 <rect x="6" y="6" width="500" height="500" rx="98" fill="none" stroke="#ffffff" stroke-opacity="0.07" stroke-width="4"/>
 <ellipse cx="256" cy="388" rx="164" ry="32" fill="#000000" opacity="0.22"/>
 <path d="M90.03 261.63L90.00 262.25L90.03 262.88L90.00 263.50L90.03 264.13L90.00 264.75L90.03 265.38L90.00 266.00L90.03 266.63L90.00 267.25L90.03 267.88L90.00 268.50L90.03 269.13L90.00 269.75L90.03 270.38L90.00 271.00L90.03 271.63L90.00 272.25L90.03 272.88L90.00 273.50L90.03 274.13L90.00 274.75L90.03 275.38L90.00 276.00L90.16 278.87L90.65 281.72L91.46 284.55L92.59 287.35L94.03 290.09L95.78 292.78L97.83 295.39L100.17 297.92L102.80 300.36L105.69 302.69L108.84 304.91L112.24 307.00L202.31 359.00L205.93 360.96L209.77 362.78L213.81 364.45L218.03 365.97L222.42 367.32L226.94 368.50L231.59 369.51L236.35 370.35L241.19 371.00L246.09 371.47L251.03 371.75L256.00 371.84L260.97 371.75L265.91 371.47L270.81 371.00L275.65 370.35L280.41 369.51L285.06 368.50L289.58 367.32L293.97 365.97L298.19 364.45L302.23 362.78L306.07 360.96L309.69 359.00L399.76 307.00L403.16 304.91L406.31 302.69L409.20 300.36L411.83 297.92L414.17 295.39L416.22 292.78L417.97 290.09L419.41 287.35L420.54 284.55L421.35 281.72L421.84 278.87L422.00 276.00L421.97 275.38L422.00 274.75L421.97 274.12L422.00 273.50L421.97 272.88L422.00 272.25L421.97 271.62L422.00 271.00L421.97 270.38L422.00 269.75L421.97 269.12L422.00 268.50L421.97 267.88L422.00 267.25L421.97 266.62L422.00 266.00L421.97 265.38L422.00 264.75L421.97 264.12L422.00 263.50L421.97 262.88L422.00 262.25L421.97 261.62L422.00 261.00L421.97 260.38L422.00 259.75L421.97 259.12L422.00 258.50L421.97 257.88L422.00 257.25L421.97 256.62L422.00 256.00L421.97 255.38L422.00 254.75L421.97 254.12L422.00 253.50L421.97 252.88L422.00 252.25L421.97 251.62L422.00 251.00L421.97 250.38L422.00 249.75L421.97 249.12L422.00 248.50L421.97 247.88L422.00 247.25L421.97 246.62L422.00 246.00L421.84 248.87L421.35 251.72L420.54 254.55L419.41 257.35L417.97 260.09L416.22 262.78L414.17 265.39L411.83 267.92L409.20 270.36L406.31 272.69L403.16 274.91L399.76 277.00L309.69 329.00L306.07 330.96L302.23 332.78L298.19 334.45L293.97 335.97L289.58 337.32L285.06 338.50L280.41 339.51L275.65 340.35L270.81 341.00L265.91 341.47L260.97 341.75L256.00 341.84L251.03 341.75L246.09 341.47L241.19 341.00L236.35 340.35L231.59 339.51L226.94 338.50L222.42 337.32L218.03 335.97L213.81 334.45L209.77 332.78L205.93 330.96L202.31 329.00L112.24 277.00L108.84 274.91L105.69 272.69L102.80 270.36L100.17 267.92L97.83 265.39L95.78 262.78L94.03 260.09L92.59 257.35L91.46 254.55L90.65 251.72L90.16 248.87L90.03 246.63L90.00 247.25L90.03 247.88L90.00 248.50L90.03 249.13L90.00 249.75L90.03 250.38L90.00 251.00L90.03 251.63L90.00 252.25L90.03 252.88L90.00 253.50L90.03 254.13L90.00 254.75L90.03 255.38L90.00 256.00L90.03 256.63L90.00 257.25L90.03 257.88L90.00 258.50L90.03 259.13L90.00 259.75L90.03 260.38L90.00 261.00Z" fill="#1a3576" fill-rule="evenodd"/>
 <path d="M399.76 215.00L309.69 163.00L306.07 161.04L302.23 159.22L298.19 157.55L293.97 156.03L289.58 154.68L285.06 153.50L280.41 152.49L275.65 151.65L270.81 151.00L265.91 150.53L260.97 150.25L256.00 150.16L251.03 150.25L246.09 150.53L241.19 151.00L236.35 151.65L231.59 152.49L226.94 153.50L222.42 154.68L218.03 156.03L213.81 157.55L209.77 159.22L205.93 161.04L202.31 163.00L112.24 215.00L108.84 217.09L105.69 219.31L102.80 221.64L100.17 224.08L97.83 226.61L95.78 229.22L94.03 231.91L92.59 234.65L91.46 237.45L90.65 240.28L90.16 243.13L90.00 246.00L90.16 248.87L90.65 251.72L91.46 254.55L92.59 257.35L94.03 260.09L95.78 262.78L97.83 265.39L100.17 267.92L102.80 270.36L105.69 272.69L108.84 274.91L112.24 277.00L202.31 329.00L205.93 330.96L209.77 332.78L213.81 334.45L218.03 335.97L222.42 337.32L226.94 338.50L231.59 339.51L236.35 340.35L241.19 341.00L246.09 341.47L251.03 341.75L256.00 341.84L260.97 341.75L265.91 341.47L270.81 341.00L275.65 340.35L280.41 339.51L285.06 338.50L289.58 337.32L293.97 335.97L298.19 334.45L302.23 332.78L306.07 330.96L309.69 329.00L399.76 277.00L403.16 274.91L406.31 272.69L409.20 270.36L411.83 267.92L414.17 265.39L416.22 262.78L417.97 260.09L419.41 257.35L420.54 254.55L421.35 251.72L421.84 248.87L422.00 246.00L421.84 243.13L421.35 240.28L420.54 237.45L419.41 234.65L417.97 231.91L416.22 229.22L414.17 226.61L411.83 224.08L409.20 221.64L406.31 219.31L403.16 217.09Z" fill="url(#ptop)" fill-rule="evenodd"/>
 <path d="M227.65 295.46L227.62 295.92L227.65 296.38L227.62 296.83L227.65 297.29L227.62 297.75L227.65 298.21L227.62 298.67L227.65 299.12L227.62 299.58L227.65 300.04L227.62 300.50L227.65 300.96L227.62 301.42L227.65 301.88L227.62 302.33L227.65 302.79L227.62 303.25L227.65 303.71L227.62 304.17L227.65 304.62L227.62 305.08L227.65 305.54L227.62 306.00L227.69 307.20L227.89 308.40L228.23 309.59L228.71 310.76L229.31 311.91L230.04 313.04L230.90 314.13L231.89 315.19L232.99 316.21L234.20 317.19L235.52 318.12L236.95 319.00L238.47 319.82L240.08 320.59L241.77 321.29L243.54 321.92L245.38 322.49L247.28 322.99L249.23 323.41L251.22 323.76L253.25 324.03L255.31 324.23L257.38 324.35L259.46 324.38L261.55 324.35L263.62 324.23L265.68 324.03L267.71 323.76L269.70 323.41L271.65 322.99L273.55 322.49L275.39 321.92L277.16 321.29L278.85 320.59L280.46 319.82L281.98 319.00L283.41 318.12L284.73 317.19L285.94 316.21L287.04 315.19L288.02 314.13L288.88 313.04L289.62 311.91L290.22 310.76L290.70 309.59L291.04 308.40L291.24 307.20L291.31 306.00L291.28 305.54L291.31 305.08L291.28 304.62L291.31 304.17L291.28 303.71L291.31 303.25L291.28 302.79L291.31 302.33L291.28 301.88L291.31 301.42L291.28 300.96L291.31 300.50L291.28 300.04L291.31 299.58L291.28 299.12L291.31 298.67L291.28 298.21L291.31 297.75L291.28 297.29L291.31 296.83L291.28 296.38L291.31 295.92L291.28 295.46L291.31 295.00L291.28 294.54L291.31 294.08L291.28 293.62L291.31 293.17L291.28 292.71L291.31 292.25L291.28 291.79L291.31 291.33L291.28 290.88L291.31 290.42L291.28 289.96L291.31 289.50L291.28 289.04L291.31 288.58L291.28 288.12L291.31 287.67L291.28 287.21L291.31 286.75L291.28 286.29L291.31 285.83L291.28 285.38L291.31 284.92L291.28 284.46L291.31 284.00L291.24 285.20L291.04 286.40L290.70 287.59L290.22 288.76L289.62 289.91L288.88 291.04L288.02 292.13L287.04 293.19L285.94 294.21L284.73 295.19L283.41 296.12L281.98 297.00L280.46 297.82L278.85 298.59L277.16 299.29L275.39 299.92L273.55 300.49L271.65 300.99L269.70 301.41L267.71 301.76L265.68 302.03L263.62 302.23L261.55 302.35L259.46 302.38L257.38 302.35L255.31 302.23L253.25 302.03L251.22 301.76L249.23 301.41L247.28 300.99L245.38 300.49L243.54 299.92L241.77 299.29L240.08 298.59L238.47 297.82L236.95 297.00L235.52 296.12L234.20 295.19L232.99 294.21L231.89 293.19L230.90 292.13L230.04 291.04L229.31 289.91L228.71 288.76L228.23 287.59L227.89 286.40L227.69 285.20L227.65 284.46L227.62 284.92L227.65 285.38L227.62 285.83L227.65 286.29L227.62 286.75L227.65 287.21L227.62 287.67L227.65 288.12L227.62 288.58L227.65 289.04L227.62 289.50L227.65 289.96L227.62 290.42L227.65 290.88L227.62 291.33L227.65 291.79L227.62 292.25L227.65 292.71L227.62 293.17L227.65 293.62L227.62 294.08L227.65 294.54L227.62 295.00Z" fill="#a02626" fill-rule="evenodd"/>
 <path d="M281.98 297.00L283.41 296.12L284.73 295.19L285.94 294.21L287.04 293.19L288.02 292.13L288.88 291.04L289.62 289.91L290.22 288.76L290.70 287.59L291.04 286.40L291.24 285.20L291.31 284.00L291.24 282.80L291.04 281.60L290.70 280.41L290.22 279.24L289.62 278.09L288.88 276.96L288.02 275.87L287.04 274.81L285.94 273.79L284.73 272.81L283.41 271.88L281.98 271.00L280.46 270.18L278.85 269.41L277.16 268.71L275.39 268.08L273.55 267.51L271.65 267.01L269.70 266.59L267.71 266.24L265.68 265.97L263.62 265.77L261.55 265.65L259.46 265.62L257.38 265.65L255.31 265.77L253.25 265.97L251.22 266.24L249.23 266.59L247.28 267.01L245.38 267.51L243.54 268.08L241.77 268.71L240.08 269.41L238.47 270.18L236.95 271.00L235.52 271.88L234.20 272.81L232.99 273.79L231.89 274.81L230.90 275.87L230.04 276.96L229.31 278.09L228.71 279.24L228.23 280.41L227.89 281.60L227.69 282.80L227.62 284.00L227.69 285.20L227.89 286.40L228.23 287.59L228.71 288.76L229.31 289.91L230.04 291.04L230.90 292.13L231.89 293.19L232.99 294.21L234.20 295.19L235.52 296.12L236.95 297.00L238.47 297.82L240.08 298.59L241.77 299.29L243.54 299.92L245.38 300.49L247.28 300.99L249.23 301.41L251.22 301.76L253.25 302.03L255.31 302.23L257.38 302.35L259.46 302.38L261.55 302.35L263.62 302.23L265.68 302.03L267.71 301.76L269.70 301.41L271.65 300.99L273.55 300.49L275.39 299.92L277.16 299.29L278.85 298.59L280.46 297.82Z" fill="#ef4444" fill-rule="evenodd"/>
 <path d="M218.32 169.29L218.52 170.32L218.32 170.21L218.52 171.24L218.32 171.13L218.52 172.15L218.32 172.04L218.52 173.07L218.32 172.96L218.52 173.99L218.32 173.88L218.52 174.90L218.32 174.79L218.52 175.82L218.32 175.71L218.52 176.74L218.32 176.63L218.52 177.65L218.32 177.54L218.52 178.57L218.32 178.46L218.52 179.49L218.32 179.38L221.51 195.39L225.64 194.05L218.52 158.40L218.32 158.29L218.52 159.32L218.32 159.21L218.52 160.24L218.32 160.13L218.52 161.15L218.32 161.04L218.52 162.07L218.32 161.96L218.52 162.99L218.32 162.88L218.52 163.90L218.32 163.79L218.52 164.82L218.32 164.71L218.52 165.74L218.32 165.63L218.52 166.65L218.32 166.54L218.52 167.57L218.32 167.46L218.52 168.49L218.32 168.38L218.52 169.40ZM172.02 212.43L169.95 213.10L172.02 213.34L169.95 214.02L172.02 214.26L169.95 214.94L172.02 215.18L169.95 215.85L172.02 216.09L169.95 216.77L172.02 217.01L169.95 217.69L172.02 217.93L169.95 218.60L172.02 218.84L169.95 219.52L172.02 219.76L169.95 220.44L172.02 220.68L169.95 221.35L172.02 221.59L169.95 222.27L172.02 222.51L169.95 223.19L172.02 223.43L169.95 224.10L172.02 224.34L169.95 225.02L172.02 225.26L169.95 225.94L172.02 226.18L169.95 226.85L172.02 227.09L169.95 227.77L172.02 228.01L169.95 228.69L172.02 228.93L169.95 229.60L172.02 229.84L169.95 230.52L172.02 230.76L169.95 231.44L172.02 231.68L169.95 232.35L172.02 232.59L169.95 233.27L172.02 233.51L169.95 234.19L232.62 241.50L245.29 277.68L276.70 245.53L340.22 249.76L338.59 248.73L340.22 248.84L338.59 247.81L340.22 247.92L338.59 246.90L340.22 247.01L338.59 245.98L340.22 246.09L338.59 245.06L340.22 245.17L338.59 244.15L340.22 244.26L338.59 243.23L340.22 243.34L338.59 242.31L340.22 242.42L338.59 241.40L340.22 241.51L338.59 240.48L340.22 240.59L338.59 239.56L340.22 239.67L338.59 238.65L340.22 238.76L338.59 237.73L340.22 237.84L338.59 236.81L340.22 236.92L338.59 235.90L340.22 236.01L338.59 234.98L340.22 235.09L338.59 234.06L340.22 234.17L338.59 233.15L340.22 233.26L338.59 232.23L340.22 232.34L338.59 231.31L340.22 231.42L338.59 230.40L340.22 230.51L338.59 229.48L340.22 229.59L338.59 228.56L340.22 228.67L338.59 227.65L276.70 223.53L245.29 255.68L232.62 219.50L169.95 212.19ZM308.60 207.88L323.55 189.00L322.63 189.24L323.55 188.08L322.63 188.33L323.55 187.17L322.63 187.41L323.55 186.25L322.63 186.49L323.55 185.33L322.63 185.58L323.55 184.42L322.63 184.66L323.55 183.50L322.63 183.74L323.55 182.58L322.63 182.83L323.55 181.67L322.63 181.91L323.55 180.75L322.63 180.99L323.55 179.83L322.63 180.08L323.55 178.92L322.63 179.16L323.55 178.00L322.63 178.24L323.55 177.08L322.63 177.33L323.55 176.17L322.63 176.41L323.55 175.25L322.63 175.49L323.55 174.33L322.63 174.58L323.55 173.42L322.63 173.66L323.55 172.50L322.63 172.74L323.55 171.58L322.63 171.83L323.55 170.67L322.63 170.91L323.55 169.75L322.63 169.99L323.55 168.83L322.63 169.08L323.55 167.92L322.63 168.16L323.55 167.00L296.96 200.57L340.22 227.76Z" fill="#b97d12" fill-rule="evenodd"/>
 <path d="M323.55 167.00L296.96 200.57L340.22 227.76L276.70 223.53L245.29 255.68L232.62 219.50L169.95 212.19L225.64 194.05L218.32 157.38L265.40 182.35Z" fill="url(#stop)" fill-rule="evenodd"/>
</svg>
